# xmcd CD database file
#
# Track frame offsets:
#	150
#	17769
#	37078
#	54314
#	72584
#	87013
#	108263
#	121277
#	141671
#	158136
#	171409
#
# Disc length: 2714 seconds
#
# Revision: 0
# Processed by: cddbd v1.5.2PL0 Copyright (c) Steve Scherf et al.
# Submitted via: CDex 1.70beta2
#
DISCID=990a980b
DTITLE=Swing Orchester Truxa - Wenn Wieder Frühling ist
DYEAR=1900
DGENRE=Jazz
TTITLE0=Caravan
TTITLE1=Ich werde jede Nacht von Ihnen träumen
TTITLE2=Wenn wieder Frühling ist
TTITLE3=I'd Love It
TTITLE4=Opus 3/4
TTITLE5=Bel Ami
TTITLE6=Troublesome Trumpet
TTITLE7=Dummes, kleines Ding
TTITLE8=Liza
TTITLE9=Junger Mann aus gutem Hause
TTITLE10=Georgia On My Mind
EXTD=
EXTT0=
EXTT1=
EXTT2=
EXTT3=
EXTT4=
EXTT5=
EXTT6=
EXTT7=
EXTT8=
EXTT9=
EXTT10=
PLAYORDER=
